# xmcd
#
# Track frame offsets:
# 150
# 21137
# 39995
# 67879
# 85292
# 108357
# 138633
# 158126
# 174460
# 190163
# 208808
# 228091
#
# Disc length: 3296 seconds
#
# Revision: 0
# Processed by: cddbd v1.5.2PL0 Copyright (c) Steve Scherf et al.
# Submitted via: Axialis_AX_CDPlayer 2.6
#
DISCID=980cde0c
DTITLE=손우석(Son Woo Seok) - The Light of Hope
DYEAR=1900
DGENRE=
TTITLE0=소망의 빛
TTITLE1=생수의 강
TTITLE2=바람처럼 구름처럼
TTITLE3=예수 믿으시오
TTITLE4=나를 찾아 오셨네
TTITLE5=그 사랑이 내겐
TTITLE6=이 봄을 그대로 맞으리
TTITLE7=모두 외치라
TTITLE8=사랑의 힘에(Power of Love)
TTITLE9=새 하늘과 새 땅
TTITLE10=잊지 말아요(Bonus Track_결혼축가)
TTITLE11=잊지 말아요(MR)
EXTD=
EXTT0=
EXTT1=
EXTT2=
EXTT3=
EXTT4=
EXTT5=
EXTT6=
EXTT7=
EXTT8=
EXTT9=
EXTT10=
EXTT11=
PLAYORDER=
